<svg width="200" height="79" viewBox="0 0 200 79" fill="none" xmlns="http://www.w3.org/2000/svg">
<g clip-path="url(#clip0_48_8)">
<path d="M32.8475 77.7786L1.17861 62.2503C0.867565 62.1962 0.583268 62.0396 0.370518 61.8051C0.157768 61.5707 0.0286596 61.2717 0.00353595 60.9553C-0.0215877 60.639 0.058702 60.3232 0.231754 60.0577C0.404805 59.7923 0.660781 59.5923 0.959346 59.4893L24.4919 51.3428C24.8486 51.2193 25.2394 51.2434 25.5784 51.4096C25.9174 51.5759 26.1768 51.8707 26.2996 52.2293C26.4224 52.5878 26.3985 52.9808 26.2332 53.3216C26.0678 53.6625 25.7745 53.9233 25.4179 54.0468L5.20604 61.0437L34.0947 75.2095C34.2684 75.2881 34.4246 75.4011 34.554 75.5416C34.6835 75.6821 34.7836 75.8473 34.8483 76.0274C34.913 76.2075 34.9411 76.3989 34.9309 76.5901C34.9207 76.7814 34.8724 76.9686 34.7888 77.1407C34.7053 77.3128 34.5882 77.4663 34.4445 77.5921C34.3008 77.7178 34.1335 77.8133 33.9524 77.8728C33.7714 77.9323 33.5803 77.9546 33.3905 77.9384C33.2007 77.9223 33.016 77.8679 32.8475 77.7786Z" fill="white"/>
<path d="M7.89842 1.12666C7.89842 0.504421 7.39672 0 6.77783 0C6.15894 0 5.65723 0.504421 5.65723 1.12666V77.3637C5.65723 77.986 6.15894 78.4904 6.77783 78.4904C7.39672 78.4904 7.89842 77.986 7.89842 77.3637V1.12666Z" fill="white"/>
<path d="M167.358 77.0843L167.372 41.6587C167.284 41.3538 167.299 41.0283 167.416 40.7333C167.532 40.4383 167.743 40.1906 168.015 40.0294C168.287 39.8681 168.604 39.8024 168.917 39.8425C169.231 39.8827 169.521 40.0264 169.744 40.2512L187.336 57.9531C187.603 58.2214 187.752 58.5852 187.752 58.9644C187.752 59.3437 187.602 59.7073 187.335 59.9753C187.068 60.2434 186.706 60.3939 186.329 60.3937C185.952 60.3935 185.59 60.2427 185.324 59.9744L170.215 44.7704L170.201 77.0863C170.207 77.2778 170.174 77.4684 170.105 77.6469C170.037 77.8255 169.933 77.9883 169.8 78.1257C169.667 78.2631 169.508 78.3723 169.333 78.4469C169.157 78.5214 168.969 78.5597 168.778 78.5596C168.588 78.5594 168.399 78.5208 168.224 78.4461C168.049 78.3713 167.89 78.2618 167.757 78.1242C167.625 77.9867 167.521 77.8237 167.453 77.6451C167.384 77.4664 167.352 77.2757 167.358 77.0843Z" fill="white"/>
<path d="M199.524 46.5455L199.523 46.5452C199.261 46.0152 198.621 45.7997 198.093 46.0638L156.727 66.7891C156.2 67.0532 155.985 67.6969 156.248 68.2269L156.248 68.2272C156.511 68.7572 157.151 68.9728 157.678 68.7087L199.045 47.9833C199.572 47.7192 199.786 47.0755 199.524 46.5455Z" fill="white"/>
<mask id="mask0_48_8" style="mask-type:luminance" maskUnits="userSpaceOnUse" x="42" y="42" width="25" height="37">
<path d="M66.6535 42.9304H42.0044V78.6758H66.6535V42.9304Z" fill="white"/>
</mask>
<g mask="url(#mask0_48_8)">
<path d="M62.2807 67.9252V43.8831C62.2975 43.7537 62.2845 43.6222 62.2427 43.4986C62.2008 43.3751 62.1312 43.2629 62.0393 43.1707C61.9474 43.0785 61.8356 43.0089 61.7126 42.9671C61.5896 42.9254 61.4587 42.9127 61.33 42.93H58.8528C58.6254 42.9255 58.4008 42.9813 58.2016 43.0918C58.0025 43.2023 57.8358 43.3636 57.7184 43.5594L42.3512 67.3893C42.1286 67.7361 42.0084 68.1393 42.0046 68.552V71.0878C41.9892 71.2167 42.0032 71.3476 42.0454 71.4703C42.0876 71.5931 42.1569 71.7047 42.2481 71.7967C42.3394 71.8887 42.4502 71.9587 42.5722 72.0014C42.6942 72.0442 42.8243 72.0586 42.9526 72.0435H57.9051V77.7226C57.8881 77.8518 57.9009 77.9833 57.9426 78.1067C57.9842 78.2301 58.0535 78.3423 58.1452 78.4344C58.2369 78.5266 58.3484 78.5963 58.4712 78.6381C58.5939 78.68 58.7246 78.6929 58.8531 78.6758H61.3304C61.4591 78.6931 61.59 78.6804 61.713 78.6386C61.836 78.5969 61.9478 78.5272 62.0397 78.4351C62.1316 78.3429 62.2012 78.2307 62.2431 78.1072C62.2849 77.9836 62.2979 77.852 62.2811 77.7226V72.0435H65.706C65.8347 72.0605 65.9656 72.0474 66.0885 72.0053C66.2113 71.9633 66.3229 71.8933 66.4146 71.8009C66.5063 71.7085 66.5755 71.5961 66.6171 71.4724C66.6586 71.3487 66.6712 71.2171 66.654 71.0878V68.8784C66.6712 68.7491 66.6586 68.6176 66.617 68.4941C66.5755 68.3705 66.5062 68.2583 66.4145 68.1661C66.3227 68.0739 66.2111 68.0042 66.0882 67.9624C65.9653 67.9206 65.8345 67.9079 65.706 67.9252H62.2807ZM57.9051 49.9817V67.9256H46.6793L57.9051 49.9817Z" fill="white"/>
</g>
<mask id="mask1_48_8" style="mask-type:luminance" maskUnits="userSpaceOnUse" x="78" y="42" width="34" height="37">
<path d="M111.474 42.9304H78.979V78.6758H111.474V42.9304Z" fill="white"/>
</mask>
<g mask="url(#mask1_48_8)">
<path d="M82.4359 78.6758C82.5614 78.6925 82.689 78.6798 82.8088 78.6389C82.9287 78.5979 83.0375 78.5298 83.1269 78.4397C83.2163 78.3496 83.2839 78.24 83.3244 78.1195C83.3649 77.9989 83.3772 77.8706 83.3604 77.7444V53.9994L94.5619 69.3674C94.622 69.4901 94.7152 69.5934 94.8307 69.6656C94.9462 69.7379 95.0795 69.7762 95.2156 69.7762C95.3516 69.7762 95.485 69.7379 95.6005 69.6656C95.716 69.5934 95.8091 69.4901 95.8693 69.3674L107.092 53.9994V77.7444C107.076 77.8705 107.088 77.9987 107.129 78.1191C107.17 78.2395 107.237 78.3489 107.327 78.4388C107.416 78.5287 107.525 78.5967 107.645 78.6376C107.764 78.6784 107.892 78.691 108.017 78.6743H110.547C110.672 78.6912 110.8 78.6788 110.92 78.6381C111.04 78.5973 111.149 78.5294 111.239 78.4395C111.328 78.3496 111.396 78.2401 111.437 78.1196C111.478 77.999 111.49 77.8707 111.474 77.7444V44.5081C111.474 42.7621 110.23 42.375 109.214 43.8058L95.2141 63.125L81.2384 43.8058C80.2011 42.375 78.9789 42.7621 78.9789 44.5081V77.7444C78.9622 77.8709 78.9747 77.9994 79.0154 78.1202C79.0562 78.2409 79.1241 78.3506 79.2138 78.4407C79.3036 78.5308 79.4128 78.5989 79.5329 78.6396C79.6531 78.6804 79.781 78.6928 79.9067 78.6758H82.4359Z" fill="white"/>
</g>
<mask id="mask2_48_8" style="mask-type:luminance" maskUnits="userSpaceOnUse" x="123" y="42" width="23" height="37">
<path d="M145.735 42.9304H123.776V78.6758H145.735V42.9304Z" fill="white"/>
</mask>
<g mask="url(#mask2_48_8)">
<path d="M144.807 78.6758C144.933 78.6926 145.061 78.6799 145.181 78.6389C145.301 78.5979 145.41 78.5296 145.5 78.4394C145.59 78.3491 145.658 78.2393 145.699 78.1184C145.739 77.9975 145.752 77.8688 145.735 77.7422V75.5527C145.749 75.4277 145.735 75.301 145.693 75.1824C145.651 75.0639 145.582 74.9565 145.493 74.8686C145.403 74.7807 145.295 74.7145 145.176 74.6751C145.057 74.6357 144.931 74.6241 144.807 74.6413H131.949L138.911 66.2522C142.788 61.6006 145.668 58.455 145.668 53.5311C145.668 47.3736 140.86 42.9304 134.759 42.9304C129.318 42.9304 125.554 46.2815 124.285 51.4329C124.241 51.55 124.226 51.6757 124.24 51.8C124.254 51.9242 124.296 52.0434 124.365 52.1478C124.433 52.2522 124.525 52.3388 124.634 52.4006C124.742 52.4624 124.863 52.4975 124.987 52.5032L127.37 52.9577C127.936 53.0493 128.276 52.7766 128.434 52.2066C129.318 48.9441 131.565 46.9627 134.851 46.9627C135.711 46.9536 136.563 47.1175 137.358 47.4447C138.154 47.7718 138.876 48.2557 139.482 48.8678C140.089 49.4799 140.567 50.2078 140.89 51.0087C141.212 51.8096 141.372 52.6672 141.36 53.5311C141.36 56.7902 139.138 59.3443 136.667 62.3281L124.036 77.5143C123.537 78.1283 123.785 78.6758 124.556 78.6758H144.807Z" fill="white"/>
</g>
</g>
<defs>
<clipPath id="clip0_48_8">
<rect width="200" height="79" fill="white"/>
</clipPath>
</defs>
</svg>
